# Blender v2.79 (sub 0) OBJ File: 'model.blend'
# www.blender.org
mtllib inner_door.mtl
o Box051_Untitled.110
v 0.334015 1.811669 -2.398990
v 0.173760 1.653661 -2.398991
v 0.158039 1.664814 -2.398991
v 0.334015 1.811668 -2.352441
v 0.173760 1.653661 -2.352442
v 0.184913 1.637939 -2.352443
v 0.301100 0.066086 -2.385370
v -0.320353 0.066086 -2.385370
v -0.320353 0.066086 -2.366089
v 0.301100 0.066086 -2.366089
v -0.353268 0.160626 -2.352454
v -0.353268 1.811668 -2.352441
v -0.353268 1.811669 -2.398990
v -0.353268 0.160626 -2.399003
v -0.320353 1.906208 -2.385355
v 0.301100 1.906208 -2.385355
v 0.301100 1.906208 -2.366074
v -0.320353 1.906208 -2.366074
v 0.334015 0.160626 -2.352454
v 0.334015 0.160626 -2.399003
v 0.329490 0.126355 -2.394478
v -0.348742 0.126355 -2.394477
v 0.322495 0.099175 -2.387483
v -0.341748 0.099175 -2.387483
v -0.348742 1.845939 -2.394464
v 0.329490 1.845939 -2.394464
v -0.341748 1.873119 -2.387469
v 0.322495 1.873119 -2.387470
v 0.329490 1.845939 -2.356967
v -0.348742 1.845939 -2.356967
v 0.322495 1.873119 -2.363961
v -0.341748 1.873119 -2.363961
v -0.348742 0.126355 -2.356980
v 0.329490 0.126355 -2.356980
v -0.341748 0.099175 -2.363975
v 0.322495 0.099175 -2.363975
v 0.313032 0.079085 -2.378020
v 0.313032 0.079085 -2.373438
v -0.332285 0.079085 -2.373438
v -0.332285 0.079085 -2.378020
v -0.332285 1.893209 -2.378006
v -0.332285 1.893209 -2.373424
v 0.313032 1.893209 -2.373424
v 0.313032 1.893209 -2.378006
v 0.158039 1.664814 -2.352442
v 0.172618 1.652519 -2.352442
v -0.163343 1.664814 -2.398991
v -0.179065 1.653661 -2.398991
v -0.190217 1.637940 -2.398992
v -0.190217 1.133100 -2.398995
v -0.179065 1.117378 -2.398996
v -0.163343 1.106225 -2.398996
v 0.158039 1.106225 -2.398996
v 0.173760 1.117378 -2.398996
v 0.184913 1.133100 -2.398995
v 0.184913 1.637940 -2.398992
v 0.184913 1.133099 -2.352446
v 0.173760 1.117378 -2.352447
v 0.158039 1.106225 -2.352447
v -0.163343 1.106225 -2.352447
v -0.179065 1.117378 -2.352447
v -0.190217 1.133099 -2.352446
v -0.190217 1.637939 -2.352443
v -0.179065 1.653661 -2.352442
v -0.163343 1.664814 -2.352442
v 0.146892 1.125590 -2.337847
v 0.146892 1.125590 -2.413610
v -0.152203 1.125590 -2.413610
v -0.152203 1.125590 -2.337847
v -0.166834 1.135970 -2.413610
v -0.166834 1.135970 -2.337846
v -0.177213 1.150601 -2.337846
v -0.177213 1.150601 -2.413610
v -0.177213 1.620431 -2.413593
v -0.177213 1.620431 -2.337829
v -0.166834 1.635063 -2.413592
v -0.166834 1.635063 -2.337828
v -0.152203 1.645442 -2.337828
v -0.152203 1.645442 -2.413592
v 0.146826 1.645349 -2.413592
v 0.146966 1.645530 -2.337828
v 0.161364 1.634903 -2.413601
v 0.160622 1.634161 -2.337820
v 0.171990 1.620505 -2.337829
v 0.171809 1.620365 -2.413593
v 0.171903 1.150601 -2.413610
v 0.171903 1.150601 -2.337846
v 0.161523 1.135970 -2.413610
v 0.161523 1.135970 -2.337846
vt 1.000000 0.948623
vt 0.766828 0.862755
vt 0.743954 0.868816
vt 0.000000 0.948623
vt 0.233172 0.862755
vt 0.216944 0.854212
vt 0.047892 0.292893
vt 0.952108 0.292893
vt 0.952108 0.707107
vt 0.047892 0.707107
vt 0.051377 1.000000
vt 0.948623 1.000000
vt 0.948623 0.000000
vt 0.051377 0.000000
vt 0.047892 0.292893
vt 0.952108 0.292893
vt 0.952108 0.707107
vt 0.047892 0.707107
vt 0.051377 1.000000
vt 0.948623 1.000000
vt 0.948623 0.000000
vt 0.051377 0.000000
vt 0.000000 0.051377
vt 1.000000 0.051377
vt 1.000000 0.025688
vt 0.000000 0.025688
vt 1.000000 0.000000
vt 0.000000 0.000000
vt 0.000000 0.948623
vt 0.000000 0.974312
vt 1.000000 0.974312
vt 0.000000 1.000000
vt 1.000000 1.000000
vt 1.000000 0.948623
vt 0.000000 0.974312
vt 1.000000 0.974312
vt 0.000000 1.000000
vt 1.000000 1.000000
vt 0.000000 0.051377
vt 1.000000 0.051377
vt 1.000000 0.025688
vt 0.000000 0.025688
vt 1.000000 0.000000
vt 0.000000 0.000000
vt 0.023946 0.353553
vt 0.023946 0.646447
vt 0.000000 0.000000
vt 0.000000 1.000000
vt 0.976054 0.646447
vt 1.000000 1.000000
vt 0.976054 0.353553
vt 1.000000 0.000000
vt 0.025688 0.000000
vt 0.025688 1.000000
vt 0.000000 1.000000
vt 0.974312 1.000000
vt 0.974312 0.000000
vt 1.000000 0.000000
vt 0.023946 0.353553
vt 0.023946 0.646447
vt 0.000000 0.000000
vt 0.000000 1.000000
vt 0.976054 0.646447
vt 1.000000 1.000000
vt 0.976054 0.353553
vt 1.000000 0.000000
vt 0.025688 0.000000
vt 0.025688 1.000000
vt 0.000000 0.000000
vt 0.974312 1.000000
vt 0.974312 0.000000
vt 1.000000 1.000000
vt 0.256046 0.868816
vt 0.236495 0.861514
vt 0.276342 0.868816
vt 0.253467 0.862755
vt 0.237239 0.854211
vt 0.237239 0.579860
vt 0.253467 0.571316
vt 0.276342 0.565255
vt 0.743953 0.565255
vt 0.766828 0.571316
vt 0.783056 0.579860
vt 0.783056 0.854211
vt 0.216944 0.579860
vt 0.233172 0.571316
vt 0.256046 0.565255
vt 0.723658 0.565255
vt 0.746533 0.571316
vt 0.762761 0.579860
vt 0.762761 0.854211
vt 0.746533 0.862755
vt 0.723658 0.868816
vt 0.071640 0.314633
vt 0.071640 0.654633
vt 0.928360 0.654633
vt 0.928360 0.314634
vt 1.000000 0.654633
vt 1.000000 0.314633
vt 0.048111 0.314633
vt 0.048111 0.654633
vt 0.951889 0.654633
vt 0.951889 0.314633
vt 1.000000 0.654633
vt 1.000000 0.314633
vt 0.071640 0.314633
vt 0.071640 0.654633
vt 0.928360 0.654633
vt 0.928360 0.314634
vt 1.000000 0.654633
vt 1.000000 0.314633
vt 0.048111 0.314633
vt 0.048111 0.654633
vt 0.951889 0.654633
vt 0.951889 0.314633
vt 1.000000 0.654633
vt 1.000000 0.314633
vt 0.000000 0.314633
vt 0.000000 0.654633
vt 0.000000 0.314633
vt 0.000000 0.654633
vt 0.000000 0.314633
vt 0.000000 0.654633
vt 0.000000 0.314633
vt 0.000000 0.654633
vt 0.071640 0.654633
vt 0.928360 0.654633
vt 1.000000 0.654633
vt 0.000000 0.654633
vt 0.048111 0.654633
vt 0.951889 0.654633
vt 1.000000 0.654633
vt 0.000000 0.654633
vt 0.071640 0.654633
vt 0.928360 0.654633
vt 1.000000 0.654633
vt 0.000000 0.654633
vt 0.048111 0.654633
vt 0.951889 0.654633
vt 1.000000 0.654633
vt 0.000000 0.654633
vt 0.928360 0.314634
vt 0.071640 0.314633
vt 0.000000 0.314633
vt 1.000000 0.314633
vt 0.951889 0.314633
vt 0.048111 0.314633
vt 0.000000 0.314633
vt 1.000000 0.314633
vt 0.928360 0.314634
vt 0.071640 0.314633
vt 0.000000 0.314633
vt 1.000000 0.314633
vt 0.951889 0.314633
vt 0.048111 0.314633
vt 0.000000 0.314633
vt 1.000000 0.314633
vn -0.0000 0.0628 -0.9980
vn -0.0000 0.0000 -1.0000
vn 0.0000 0.0628 0.9980
vn -0.0000 -0.0000 1.0000
vn -0.3068 0.9518 0.0000
vn 0.3068 0.9518 0.0000
vn -0.9980 -0.0628 0.0000
vn -0.9980 0.0628 0.0000
vn 0.3068 -0.9518 0.0000
vn -0.3068 -0.9518 0.0000
vn 0.9980 0.0628 0.0000
vn 0.9980 -0.0628 0.0000
vn -0.0000 -0.0628 -0.9980
vn -0.0000 -0.1831 -0.9831
vn -0.0000 -0.3198 -0.9475
vn -0.0000 0.1831 -0.9831
vn -0.0000 0.3198 -0.9475
vn 0.0000 0.1831 0.9831
vn 0.0000 0.3198 0.9475
vn -0.0000 -0.0628 0.9980
vn 0.0000 -0.1831 0.9831
vn 0.0000 -0.3198 0.9475
vn 0.8577 -0.5141 0.0000
vn 0.9475 -0.3198 0.0000
vn 0.0000 -0.6762 0.7367
vn 0.0000 -0.5141 0.8577
vn -0.8577 -0.5141 0.0000
vn -0.9475 -0.3198 0.0000
vn 0.0000 -0.6762 -0.7367
vn 0.0000 -0.5141 -0.8578
vn -0.9831 -0.1831 0.0000
vn -0.9831 0.1831 0.0000
vn -0.9475 0.3198 0.0000
vn -0.8577 0.5141 0.0000
vn 0.0000 0.6762 0.7367
vn 0.0000 0.5141 0.8577
vn 0.8577 0.5141 0.0000
vn 0.9475 0.3198 0.0000
vn 0.0000 0.6762 -0.7367
vn -0.0000 0.5141 -0.8577
vn 0.9831 0.1831 0.0000
vn 0.9831 -0.1831 0.0000
vn -0.0001 -0.0000 1.0000
vn -0.3037 0.9528 0.0000
vn 0.3037 0.9528 0.0000
vn 0.7071 0.7071 0.0000
vn 0.9528 0.3036 0.0000
vn 0.9528 -0.3036 0.0000
vn 0.7071 -0.7071 0.0000
vn 0.3036 -0.9528 0.0006
vn -0.3232 -0.9463 -0.0022
vn -0.3236 -0.9462 -0.0022
vn -0.7071 -0.7071 -0.0054
vn -0.9462 -0.3236 -0.0022
vn -0.9463 -0.3232 -0.0022
vn -0.9528 0.3036 0.0006
vn -0.7071 0.7071 0.0000
vn 0.1829 -0.5230 -0.8325
vn -0.1829 -0.5230 -0.8325
vn -0.1459 -0.5411 -0.8282
vn 0.1459 -0.5411 -0.8282
vn -0.3866 -0.3992 -0.8314
vn -0.4032 -0.3867 -0.8294
vn -0.5703 -0.2338 -0.7875
vn -0.6628 -0.1240 -0.7385
vn -0.5699 0.2337 -0.7877
vn -0.6627 0.1239 -0.7386
vn -0.3863 0.3989 -0.8317
vn -0.4029 0.3864 -0.8297
vn -0.1827 0.5222 -0.8330
vn -0.1457 0.5401 -0.8289
vn 0.1827 0.5204 -0.8342
vn 0.1458 0.5387 -0.8298
vn 0.3844 0.3967 -0.8336
vn 0.4005 0.3846 -0.8317
vn 0.5670 0.2332 -0.7900
vn 0.6602 0.1241 -0.7408
vn 0.5697 -0.2337 -0.7879
vn 0.6618 -0.1240 -0.7394
vn 0.3866 -0.3991 -0.8314
vn 0.4031 -0.3867 -0.8294
vn -0.1828 -0.5227 0.8327
vn 0.1828 -0.5226 0.8327
vn 0.1458 -0.5407 0.8285
vn -0.1458 -0.5407 0.8285
vn 0.3863 -0.3989 0.8317
vn 0.4028 -0.3864 0.8297
vn 0.5703 -0.2337 0.7875
vn 0.6633 -0.1240 0.7380
vn 0.5534 0.2551 0.7929
vn 0.6516 0.1412 0.7453
vn 0.3932 0.4003 0.8277
vn 0.4020 0.3938 0.8267
vn 0.2021 0.5155 0.8327
vn 0.1682 0.5323 0.8297
vn -0.1829 0.5233 0.8323
vn -0.1459 0.5415 0.8280
vn -0.3865 0.3991 0.8314
vn -0.4031 0.3866 0.8294
vn -0.5702 0.2338 0.7875
vn -0.6628 0.1240 0.7385
vn -0.5700 -0.2337 0.7877
vn -0.6627 -0.1240 0.7386
vn -0.3863 -0.3989 0.8316
vn -0.4029 -0.3865 0.8296
usemtl None
s 1
f 1/1/1 2/2/2 3/3/2
f 4/4/3 5/5/4 6/6/4
f 7/7/5 8/8/6 9/9/6 10/10/5
f 11/11/7 12/12/8 13/13/8 14/14/7
f 15/15/9 16/16/10 17/17/10 18/18/9
f 4/19/11 19/20/12 20/21/12 1/22/11
f 14/23/13 20/24/13 21/25/14 22/26/14
f 22/26/14 21/25/14 23/27/15 24/28/15
f 1/1/1 13/29/1 25/30/16 26/31/16
f 26/31/16 25/30/16 27/32/17 28/33/17
f 12/34/3 4/4/3 29/35/18 30/36/18
f 30/36/18 29/35/18 31/37/19 32/38/19
f 19/39/20 11/40/20 33/41/21 34/42/21
f 34/42/21 33/41/21 35/43/22 36/44/22
f 7/7/5 10/10/5 37/45/23
f 38/46/23 37/45/23 23/47/24 36/48/24
f 8/8/25 7/7/25 38/46/26 39/49/26
f 39/49/26 38/46/26 36/48/22 35/50/22
f 9/9/6 8/8/6 39/49/27
f 40/51/27 39/49/27 35/50/28 24/52/28
f 10/10/29 9/9/29 40/51/30 37/45/30
f 37/45/30 40/51/30 24/52/15 23/47/15
f 11/11/7 14/14/7 22/53/31 33/54/31
f 33/54/31 22/53/31 24/28/28 35/55/28
f 13/13/8 12/12/8 30/56/32 25/57/32
f 25/57/32 30/56/32 32/38/33 27/58/33
f 15/15/9 18/18/9 41/59/34
f 42/60/34 41/59/34 27/61/33 32/62/33
f 16/16/35 15/15/35 42/60/36 43/63/36
f 43/63/36 42/60/36 32/62/19 31/64/19
f 17/17/10 16/16/10 43/63/37
f 44/65/37 43/63/37 31/64/38 28/66/38
f 18/18/39 17/17/39 44/65/40 41/59/40
f 41/59/40 44/65/40 28/66/17 27/61/17
f 4/19/11 1/22/11 26/67/41 29/68/41
f 29/68/41 26/67/41 28/69/38 31/37/38
f 20/21/12 19/20/12 34/70/42 21/71/42
f 21/71/42 34/70/42 36/72/24 23/27/24
f 37/45/23 38/46/23 7/7/5
f 39/49/27 40/51/27 9/9/6
f 41/59/34 42/60/34 15/15/9
f 43/63/37 44/65/37 17/17/10
f 45/73/4 46/74/43 5/5/4
f 47/75/2 13/29/1 1/1/1 3/3/2
f 47/75/2 48/76/2 13/29/1
f 48/76/2 49/77/2 13/29/1
f 50/78/2 14/23/13 13/29/1 49/77/2
f 50/78/2 51/79/2 14/23/13
f 51/79/2 52/80/2 14/23/13
f 52/80/2 53/81/2 20/24/13 14/23/13
f 53/81/2 54/82/2 20/24/13
f 54/82/2 55/83/2 20/24/13
f 55/83/2 56/84/2 1/1/1 20/24/13
f 56/84/2 2/2/2 1/1/1
f 57/85/4 19/39/20 4/4/3 6/6/4
f 57/85/4 58/86/4 19/39/20
f 58/86/4 59/87/4 19/39/20
f 60/88/4 11/40/20 19/39/20 59/87/4
f 60/88/4 61/89/4 11/40/20
f 61/89/4 62/90/4 11/40/20
f 62/90/4 63/91/4 12/34/3 11/40/20
f 63/91/4 64/92/4 12/34/3
f 64/92/4 65/93/4 12/34/3
f 65/93/4 45/73/4 4/4/3 12/34/3
f 45/73/4 5/5/4 4/4/3
f 46/74/43 6/6/4 5/5/4
f 66/94/44 67/95/44 68/96/45 69/97/45
f 69/97/45 68/96/45 70/98/46 71/99/46
f 72/100/47 73/101/47 74/102/48 75/103/48
f 75/103/48 74/102/48 76/104/49 77/105/49
f 78/106/50 79/107/50 80/108/51 81/109/52
f 81/109/52 80/108/51 82/110/53 83/111/53
f 84/112/54 85/113/55 86/114/56 87/115/56
f 87/115/56 86/114/56 88/116/57 89/117/57
f 89/118/57 88/119/57 67/95/44 66/94/44
f 71/120/46 70/121/46 73/101/47 72/100/47
f 77/122/49 76/123/49 79/107/50 78/106/50
f 83/124/53 82/125/53 85/113/55 84/112/54
f 53/126/58 52/127/59 68/96/60 67/95/61
f 52/127/59 51/128/62 70/98/63 68/96/60
f 51/129/62 50/130/64 73/101/65 70/121/63
f 50/130/64 49/131/66 74/102/67 73/101/65
f 49/131/66 48/132/68 76/104/69 74/102/67
f 48/133/68 47/134/70 79/107/71 76/123/69
f 47/134/70 3/135/72 80/108/73 79/107/71
f 3/135/72 2/136/74 82/110/75 80/108/73
f 2/137/74 56/138/76 85/113/77 82/125/75
f 56/138/76 55/139/78 86/114/79 85/113/77
f 55/139/78 54/140/80 88/116/81 86/114/79
f 54/141/80 53/126/58 67/95/61 88/119/81
f 60/142/82 59/143/83 66/94/84 69/97/85
f 59/143/83 58/144/86 89/118/87 66/94/84
f 58/145/86 57/146/88 87/115/89 89/117/87
f 57/146/88 6/147/90 84/112/91 87/115/89
f 6/147/90 46/148/92 83/124/93 84/112/91
f 46/149/92 45/150/94 81/109/95 83/111/93
f 45/150/94 65/151/96 78/106/97 81/109/95
f 65/151/96 64/152/98 77/122/99 78/106/97
f 64/153/98 63/154/100 75/103/101 77/105/99
f 63/154/100 62/155/102 72/100/103 75/103/101
f 62/155/102 61/156/104 71/120/105 72/100/103
f 61/157/104 60/142/82 69/97/85 71/99/105
o Plane001_Untitled.139
v 0.182909 1.104788 -2.378755
v -0.198238 1.104788 -2.378755
v -0.198238 1.660967 -2.378751
v 0.182909 1.660967 -2.378751
vt 0.000000 0.000000
vt 1.000000 0.000000
vt 1.000000 1.000000
vt 0.000000 1.000000
vn 0.0000 0.0000 -1.0000
usemtl None
s 1
f 90/158/106 91/159/106 92/160/106 93/161/106
