# Blender v2.79 (sub 0) OBJ File: 'model.blend'
# www.blender.org
mtllib lower_right_airvent.mtl
o Box292_Untitled.414
v -1.271242 -0.337899 -3.595514
v -1.277023 -0.337899 -3.595514
v -1.277023 -0.337899 -3.090614
v -1.271242 -0.337899 -3.090614
v -1.277023 -0.631284 -3.595514
v -1.277023 -0.631284 -3.090613
v -1.271242 -0.358586 -3.574828
v -1.271242 -0.610598 -3.574828
v -1.271242 -0.631284 -3.595514
v -1.271242 -0.610598 -3.111300
v -1.271242 -0.631284 -3.090613
v -1.271242 -0.358585 -3.111300
vt 1.000000 1.000000
vt 0.500000 1.000000
vt 0.500000 1.000000
vt 0.000000 1.000000
vt 0.500000 0.000000
vt 0.500000 0.000000
vt 0.000000 0.000000
vt 0.000000 0.000000
vt 1.000000 0.000000
vt 1.000000 0.000000
vt 1.000000 1.000000
vt 1.000000 1.000000
vt 0.000000 1.000000
vt 0.000000 0.000000
vt 0.000000 0.000000
vt 0.000000 1.000000
vt 0.500000 1.000000
vt 0.010000 0.542808
vt 0.990000 0.542808
vt 0.990000 0.010000
vt 0.010000 0.010000
vn 0.0000 1.0000 0.0000
vn -1.0000 -0.0000 0.0000
vn 1.0000 0.0000 0.0000
vn 0.0000 0.0000 -1.0000
vn 0.0000 0.0000 1.0000
vn 0.0000 -1.0000 -0.0000
usemtl None
s off
f 1/1/1 2/2/1 3/3/1 4/4/1
f 5/5/2 6/6/2 3/3/2 2/2/2
f 1/7/3 7/8/3 8/9/3 9/10/3
f 9/10/3 8/9/3 10/11/3 11/12/3
f 11/12/3 10/11/3 12/13/3 4/4/3
f 4/4/3 12/13/3 7/8/3 1/7/3
s 1
f 1/1/4 9/10/4 5/5/4 2/2/4
f 6/6/5 11/14/5 4/4/5 3/3/5
f 5/5/6 9/15/6 11/16/6 6/17/6
f 7/18/3 12/19/3 10/20/3 8/21/3
