# Blender v2.79 (sub 0) OBJ File: 'model.blend'
# www.blender.org
mtllib lower_left_airvent.mtl
o Box281_Untitled.453
v 1.259986 -0.337602 -3.595514
v 1.259986 -0.337602 -3.090614
v 1.265767 -0.337602 -3.090614
v 1.265767 -0.337602 -3.595514
v 1.265766 -0.630987 -3.595514
v 1.265766 -0.630987 -3.090614
v 1.259986 -0.630987 -3.595514
v 1.259986 -0.610300 -3.574828
v 1.259986 -0.358288 -3.574828
v 1.259986 -0.630987 -3.090614
v 1.259986 -0.610301 -3.111300
v 1.259986 -0.358288 -3.111300
vt 1.000000 1.000000
vt 0.000000 1.000000
vt 0.500000 1.000000
vt 0.500000 1.000000
vt 0.500000 0.000000
vt 0.500000 0.000000
vt 0.000000 0.000000
vt 1.000000 0.000000
vt 1.000000 0.000000
vt 0.000000 0.000000
vt 1.000000 1.000000
vt 1.000000 1.000000
vt 0.000000 1.000000
vt 0.000000 0.000000
vt 0.500000 1.000000
vt 0.000000 1.000000
vt 0.000000 0.000000
vt 0.010000 0.542808
vt 0.010000 0.010000
vt 0.990000 0.010000
vt 0.990000 0.542808
vn 0.0000 1.0000 0.0000
vn 1.0000 -0.0000 -0.0000
vn -1.0000 0.0000 0.0000
vn 0.0000 0.0000 -1.0000
vn 0.0000 0.0000 1.0000
vn 0.0000 -1.0000 -0.0000
usemtl None
s off
f 1/1/1 2/2/1 3/3/1 4/4/1
f 5/5/2 4/4/2 3/3/2 6/6/2
f 1/7/3 7/8/3 8/9/3 9/10/3
f 7/8/3 10/11/3 11/12/3 8/9/3
f 10/11/3 2/2/3 12/13/3 11/12/3
f 2/2/3 1/7/3 9/10/3 12/13/3
s 1
f 1/1/4 4/4/4 5/5/4 7/8/4
f 6/6/5 3/3/5 2/2/5 10/14/5
f 5/5/6 6/15/6 10/16/6 7/17/6
f 9/18/3 8/19/3 11/20/3 12/21/3
