# Blender v2.79 (sub 0) OBJ File: 'model.blend'
# www.blender.org
mtllib upper_right_airvent.mtl
o Box297_Untitled.362
v -0.894728 1.819823 -4.280704
v -0.894728 1.834001 -4.280704
v -0.886804 1.834001 -4.280704
v -0.886804 1.819823 -4.280704
v -0.890626 1.851013 -4.280704
v -0.890626 1.851013 -3.680348
v -0.886805 1.851013 -3.680348
v -0.886804 1.851013 -4.280704
v -0.894728 1.834001 -3.680348
v -0.894728 1.819824 -3.680348
v -0.886805 1.819824 -3.680348
v -0.886805 1.834001 -3.680348
v -1.299452 1.201141 -4.280706
v -1.299452 1.635969 -4.280704
v -1.284498 1.630320 -4.280704
v -1.284498 1.201141 -4.280706
v -1.284498 1.630320 -3.680348
v -1.299452 1.635969 -3.680348
v -1.299452 1.201141 -3.680348
v -1.284498 1.201141 -3.680348
v -1.005343 1.834002 -3.680348
v -1.005343 1.834001 -4.280704
v -1.000356 1.819823 -4.280704
v -1.000356 1.819824 -3.680348
vt 0.037699 0.000000
vt 0.000000 0.000000
vt 0.000000 0.000000
vt 0.037699 0.000000
vt 0.000000 0.000000
vt 0.000000 1.000000
vt 0.000000 1.000000
vt 0.000000 0.000000
vt 0.000000 1.000000
vt 0.037699 1.000000
vt 0.037699 1.000000
vt 0.000000 1.000000
vt 0.000000 0.000000
vt 0.000000 0.500000
vt 0.038218 0.493504
vt 0.038218 0.000000
vt 0.961782 0.493504
vt 1.000000 0.500000
vt 1.000000 0.000000
vt 0.961782 0.000000
vt 1.000000 1.000000
vt 1.000000 0.000000
vt 0.961782 0.000000
vt 0.961782 1.000000
vt 0.000000 1.000000
vt 0.500000 1.000000
vt 0.500000 0.000000
vt 1.000000 1.000000
vt 1.000000 0.000000
vt 0.000000 0.000000
vt 0.000000 1.000000
vt 1.000000 1.000000
vt 1.000000 0.000000
vt 0.006496 0.854017
vt 0.006496 0.254042
vt 0.500000 0.254042
vt 0.500000 0.854017
vt 1.000000 0.254042
vt 1.000000 0.854017
vt 0.000000 0.854017
vt 0.000000 0.254042
vt 0.954916 0.254042
vt 0.954916 0.854017
vt 0.066828 0.962301
vt 0.000000 1.000000
vt 1.000000 1.000000
vt 1.000000 0.962301
vt 0.933172 0.962301
vt 0.000000 0.962301
vn 0.0000 0.0000 -1.0000
vn 0.0000 1.0000 0.0000
vn 0.0000 0.0000 1.0000
vn 0.0000 -1.0000 0.0000
vn -0.9721 0.2344 0.0000
vn 1.0000 0.0000 0.0000
vn -1.0000 0.0000 0.0000
vn -0.8828 0.4698 -0.0000
vn -0.5585 0.8295 -0.0000
vn 0.8817 -0.4718 0.0000
vn 0.5549 -0.8319 0.0000
usemtl None
s off
f 1/1/1 2/2/1 3/3/1 4/4/1
f 5/5/2 6/6/2 7/7/2 8/8/2
f 9/9/3 10/10/3 11/11/3 12/12/3
f 10/10/4 1/1/4 4/4/4 11/11/4
f 2/2/5 9/9/5 6/6/5 5/5/5
f 9/9/3 12/12/3 7/7/3 6/6/3
f 12/12/6 3/3/6 8/8/6 7/7/6
f 3/3/1 2/2/1 5/5/1 8/8/1
s 1
f 13/13/1 14/14/1 15/15/1 16/16/1
f 17/17/3 18/18/3 19/19/3 20/20/3
f 19/21/4 13/22/4 16/23/4 20/24/4
f 13/13/7 19/25/7 18/26/8 14/27/8
f 14/27/8 18/26/8 21/28/9 22/29/9
f 22/30/2 21/31/2 9/32/2 2/33/2
f 12/12/6 11/11/6 4/4/6 3/3/6
f 20/34/6 16/35/6 15/36/10 17/37/10
f 17/37/10 15/36/10 23/38/11 24/39/11
f 24/40/4 23/41/4 1/42/4 10/43/4
f 23/44/1 15/15/1 14/14/1 22/45/1 2/46/1 1/47/1
f 24/48/3 10/49/3 9/9/3 21/28/3 18/18/3 17/17/3
